<svg width="32" height="32" viewBox="0 0 32 32" fill="none" xmlns="http://www.w3.org/2000/svg">
<path d="M16.0036 7.56323C11.4632 7.56323 7.801 11.1171 7.801 15.5231C7.801 19.929 11.4632 23.4829 16.0036 23.4829C20.5439 23.4829 24.2061 19.929 24.2061 15.5231C24.2061 11.1171 20.5439 7.56323 16.0036 7.56323ZM16.0036 20.698C13.0695 20.698 10.6708 18.3773 10.6708 15.5231C10.6708 12.6689 13.0624 10.3481 16.0036 10.3481C18.9448 10.3481 21.3363 12.6689 21.3363 15.5231C21.3363 18.3773 18.9376 20.698 16.0036 20.698ZM26.4549 7.23763C26.4549 8.26985 25.5982 9.09424 24.5417 9.09424C23.478 9.09424 22.6284 8.26292 22.6284 7.23763C22.6284 6.21235 23.4851 5.38103 24.5417 5.38103C25.5982 5.38103 26.4549 6.21235 26.4549 7.23763ZM31.8876 9.12195C31.7662 6.63493 31.1808 4.43195 29.3033 2.61691C27.4329 0.801872 25.1627 0.233807 22.5999 0.10911C19.9585 -0.03637 12.0415 -0.03637 9.40011 0.10911C6.8444 0.22688 4.57423 0.794945 2.69671 2.60998C0.819186 4.42502 0.240937 6.628 0.112437 9.11502C-0.0374791 11.6782 -0.0374791 19.361 0.112437 21.9242C0.233798 24.4112 0.819186 26.6142 2.69671 28.4292C4.57423 30.2443 6.83726 30.8123 9.40011 30.937C12.0415 31.0825 19.9585 31.0825 22.5999 30.937C25.1627 30.8193 27.4329 30.2512 29.3033 28.4292C31.1737 26.6142 31.7591 24.4112 31.8876 21.9242C32.0375 19.361 32.0375 11.6852 31.8876 9.12195ZM28.4752 24.6745C27.9184 26.0323 26.8404 27.0783 25.434 27.6256C23.3281 28.4362 18.3308 28.2491 16.0036 28.2491C13.6763 28.2491 8.67195 28.4292 6.57312 27.6256C5.1739 27.0853 4.09593 26.0392 3.53196 24.6745C2.69671 22.6308 2.88946 17.7815 2.88946 15.5231C2.88946 13.2647 2.70385 8.4084 3.53196 6.37168C4.08879 5.01387 5.16676 3.9678 6.57312 3.42051C8.67909 2.60998 13.6763 2.79703 16.0036 2.79703C18.3308 2.79703 23.3352 2.61691 25.434 3.42051C26.8332 3.96087 27.9112 5.00694 28.4752 6.37168C29.3104 8.41533 29.1177 13.2647 29.1177 15.5231C29.1177 17.7815 29.3104 22.6377 28.4752 24.6745Z" fill="white"/>
</svg>
