<svg width="32" height="32" viewBox="0 0 32 32" fill="none" xmlns="http://www.w3.org/2000/svg">
<path d="M28.7107 7.73725C28.7311 8.0768 28.7311 8.41643 28.7311 8.75598C28.7311 19.1127 22.1321 31.0461 10.0711 31.0461C6.35534 31.0461 2.90357 29.7606 0 27.5292C0.52794 27.602 1.0355 27.6262 1.58376 27.6262C4.64971 27.6262 7.47209 26.3893 9.72591 24.2791C6.84265 24.2063 4.42639 21.9506 3.59389 18.846C4.00002 18.9187 4.40608 18.9672 4.83252 18.9672C5.42133 18.9672 6.01021 18.8702 6.5584 18.7005C3.55333 17.9728 1.29944 14.8197 1.29944 11.0117V10.9147C2.17251 11.4968 3.18783 11.8606 4.26389 11.9091C2.49738 10.5023 1.34007 8.10107 1.34007 5.38451C1.34007 3.92925 1.66488 2.59524 2.23345 1.431C5.4619 6.18493 10.3147 9.2895 15.7563 9.62912C15.6548 9.047 15.5939 8.44069 15.5939 7.83431C15.5939 3.51691 18.5178 0 22.1523 0C24.0406 0 25.7462 0.945935 26.9442 2.47399C28.4264 2.13444 29.8477 1.47953 31.1066 0.582119C30.6192 2.40127 29.5837 3.92932 28.2234 4.89945C29.5432 4.72975 30.8224 4.29306 32 3.68676C31.1067 5.239 29.9899 6.62147 28.7107 7.73725Z" fill="white"/>
</svg>
